<?xml version="1.0" encoding="utf-8" standalone="no"?>
<!DOCTYPE svg PUBLIC "-//W3C//DTD SVG 1.1//EN"
  "http://www.w3.org/Graphics/SVG/1.1/DTD/svg11.dtd">
<svg xmlns:xlink="http://www.w3.org/1999/xlink" width="591.84pt" height="138.024pt" viewBox="0 0 591.84 138.024" xmlns="http://www.w3.org/2000/svg" version="1.1">
 <metadata>
  <rdf:RDF xmlns:dc="http://purl.org/dc/elements/1.1/" xmlns:cc="http://creativecommons.org/ns#" xmlns:rdf="http://www.w3.org/1999/02/22-rdf-syntax-ns#">
   <cc:Work>
    <dc:type rdf:resource="http://purl.org/dc/dcmitype/StillImage"/>
    <dc:date>2026-08-24T21:00:55.978107</dc:date>
    <dc:format>image/svg+xml</dc:format>
    <dc:creator>
     <cc:Agent>
      <dc:title>Matplotlib v3.10.8, https://matplotlib.org/</dc:title>
     </cc:Agent>
    </dc:creator>
   </cc:Work>
  </rdf:RDF>
 </metadata>
 <defs>
  <style type="text/css">*{stroke-linejoin: round; stroke-linecap: butt}</style>
 </defs>
 <g id="figure_1">
  <g id="patch_1">
   <path d="M 0 138.024 
L 591.84 138.024 
L 591.84 0 
L 0 0 
L 0 138.024 
z
" style="fill: none; opacity: 0"/>
  </g>
  <g id="axes_1"/>
  <g id="text_1">
   <!-- Ricardo Morales -->
   <g style="fill: #ffffff" transform="translate(10.8 61.015437) scale(0.46 -0.46)">
    <defs>
     <path id="Poppins-Bold-52" d="M 2688 0 
L 1754 1696 
L 1491 1696 
L 1491 0 
L 397 0 
L 397 4493 
L 2234 4493 
Q 2765 4493 3139 4307 
Q 3514 4122 3699 3798 
Q 3885 3475 3885 3078 
Q 3885 2630 3632 2278 
Q 3379 1926 2886 1779 
L 3923 0 
L 2688 0 
z
M 1491 2470 
L 2170 2470 
Q 2470 2470 2620 2617 
Q 2771 2765 2771 3034 
Q 2771 3290 2620 3437 
Q 2470 3584 2170 3584 
L 1491 3584 
L 1491 2470 
z
" transform="scale(0.015625)"/>
     <path id="Poppins-Bold-69" d="M 947 3942 
Q 659 3942 476 4112 
Q 294 4282 294 4531 
Q 294 4787 476 4956 
Q 659 5126 947 5126 
Q 1229 5126 1411 4956 
Q 1594 4787 1594 4531 
Q 1594 4282 1411 4112 
Q 1229 3942 947 3942 
z
M 1491 3571 
L 1491 0 
L 397 0 
L 397 3571 
L 1491 3571 
z
" transform="scale(0.015625)"/>
     <path id="Poppins-Bold-63" d="M 179 1786 
Q 179 2342 406 2758 
Q 634 3174 1040 3398 
Q 1446 3622 1971 3622 
Q 2643 3622 3094 3270 
Q 3546 2918 3686 2278 
L 2522 2278 
Q 2374 2688 1952 2688 
Q 1651 2688 1472 2454 
Q 1293 2221 1293 1786 
Q 1293 1350 1472 1116 
Q 1651 883 1952 883 
Q 2374 883 2522 1293 
L 3686 1293 
Q 3546 666 3091 307 
Q 2637 -51 1971 -51 
Q 1446 -51 1040 173 
Q 634 397 406 813 
Q 179 1229 179 1786 
z
" transform="scale(0.015625)"/>
     <path id="Poppins-Bold-61" d="M 179 1792 
Q 179 2342 387 2758 
Q 595 3174 953 3398 
Q 1312 3622 1754 3622 
Q 2131 3622 2416 3468 
Q 2701 3315 2854 3066 
L 2854 3571 
L 3949 3571 
L 3949 0 
L 2854 0 
L 2854 506 
Q 2694 256 2409 102 
Q 2125 -51 1747 -51 
Q 1312 -51 953 176 
Q 595 403 387 822 
Q 179 1242 179 1792 
z
M 2854 1786 
Q 2854 2195 2627 2432 
Q 2400 2669 2074 2669 
Q 1747 2669 1520 2435 
Q 1293 2202 1293 1792 
Q 1293 1382 1520 1142 
Q 1747 902 2074 902 
Q 2400 902 2627 1139 
Q 2854 1376 2854 1786 
z
" transform="scale(0.015625)"/>
     <path id="Poppins-Bold-72" d="M 1491 2976 
Q 1683 3270 1971 3440 
Q 2259 3610 2611 3610 
L 2611 2451 
L 2310 2451 
Q 1901 2451 1696 2275 
Q 1491 2099 1491 1658 
L 1491 0 
L 397 0 
L 397 3571 
L 1491 3571 
L 1491 2976 
z
" transform="scale(0.015625)"/>
     <path id="Poppins-Bold-64" d="M 179 1792 
Q 179 2342 387 2758 
Q 595 3174 953 3398 
Q 1312 3622 1754 3622 
Q 2106 3622 2397 3475 
Q 2688 3328 2854 3078 
L 2854 4736 
L 3949 4736 
L 3949 0 
L 2854 0 
L 2854 512 
Q 2701 256 2416 102 
Q 2131 -51 1754 -51 
Q 1312 -51 953 176 
Q 595 403 387 822 
Q 179 1242 179 1792 
z
M 2854 1786 
Q 2854 2195 2627 2432 
Q 2400 2669 2074 2669 
Q 1747 2669 1520 2435 
Q 1293 2202 1293 1792 
Q 1293 1382 1520 1142 
Q 1747 902 2074 902 
Q 2400 902 2627 1139 
Q 2854 1376 2854 1786 
z
" transform="scale(0.015625)"/>
     <path id="Poppins-Bold-6f" d="M 2022 -51 
Q 1498 -51 1078 173 
Q 659 397 419 813 
Q 179 1229 179 1786 
Q 179 2336 422 2755 
Q 666 3174 1088 3398 
Q 1510 3622 2035 3622 
Q 2560 3622 2982 3398 
Q 3405 3174 3648 2755 
Q 3891 2336 3891 1786 
Q 3891 1235 3644 816 
Q 3398 397 2972 173 
Q 2547 -51 2022 -51 
z
M 2022 896 
Q 2336 896 2557 1126 
Q 2778 1357 2778 1786 
Q 2778 2214 2563 2444 
Q 2349 2675 2035 2675 
Q 1715 2675 1504 2448 
Q 1293 2221 1293 1786 
Q 1293 1357 1501 1126 
Q 1709 896 2022 896 
z
" transform="scale(0.015625)"/>
     <path id="Poppins-Bold-20" transform="scale(0.015625)"/>
     <path id="Poppins-Bold-4d" d="M 5485 4493 
L 5485 0 
L 4390 0 
L 4390 2694 
L 3386 0 
L 2502 0 
L 1491 2701 
L 1491 0 
L 397 0 
L 397 4493 
L 1690 4493 
L 2950 1382 
L 4198 4493 
L 5485 4493 
z
" transform="scale(0.015625)"/>
     <path id="Poppins-Bold-6c" d="M 1491 4736 
L 1491 0 
L 397 0 
L 397 4736 
L 1491 4736 
z
" transform="scale(0.015625)"/>
     <path id="Poppins-Bold-65" d="M 3763 1843 
Q 3763 1690 3744 1523 
L 1267 1523 
Q 1293 1190 1481 1014 
Q 1670 838 1946 838 
Q 2355 838 2515 1184 
L 3680 1184 
Q 3590 832 3356 550 
Q 3123 269 2771 109 
Q 2419 -51 1984 -51 
Q 1459 -51 1049 173 
Q 640 397 409 813 
Q 179 1229 179 1786 
Q 179 2342 406 2758 
Q 634 3174 1043 3398 
Q 1453 3622 1984 3622 
Q 2502 3622 2905 3404 
Q 3309 3187 3536 2784 
Q 3763 2381 3763 1843 
z
M 2643 2131 
Q 2643 2413 2451 2579 
Q 2259 2746 1971 2746 
Q 1696 2746 1507 2586 
Q 1318 2426 1274 2131 
L 2643 2131 
z
" transform="scale(0.015625)"/>
     <path id="Poppins-Bold-73" d="M 1850 -51 
Q 1382 -51 1017 109 
Q 653 269 441 547 
Q 230 826 205 1171 
L 1286 1171 
Q 1306 986 1459 870 
Q 1613 755 1837 755 
Q 2042 755 2154 835 
Q 2266 915 2266 1043 
Q 2266 1197 2106 1270 
Q 1946 1344 1587 1434 
Q 1203 1523 947 1622 
Q 691 1722 505 1936 
Q 320 2150 320 2515 
Q 320 2822 489 3075 
Q 659 3328 988 3475 
Q 1318 3622 1773 3622 
Q 2445 3622 2832 3289 
Q 3219 2957 3277 2406 
L 2266 2406 
Q 2240 2592 2102 2701 
Q 1965 2810 1741 2810 
Q 1549 2810 1446 2736 
Q 1344 2662 1344 2534 
Q 1344 2381 1507 2304 
Q 1670 2227 2016 2150 
Q 2413 2048 2662 1949 
Q 2912 1850 3101 1629 
Q 3290 1408 3296 1037 
Q 3296 723 3120 476 
Q 2944 230 2614 89 
Q 2285 -51 1850 -51 
z
" transform="scale(0.015625)"/>
    </defs>
    <use xlink:href="#Poppins-Bold-52"/>
    <use xlink:href="#Poppins-Bold-69" transform="translate(65.199997 0)"/>
    <use xlink:href="#Poppins-Bold-63" transform="translate(94.699982 0)"/>
    <use xlink:href="#Poppins-Bold-61" transform="translate(155.199966 0)"/>
    <use xlink:href="#Poppins-Bold-72" transform="translate(223.09996 0)"/>
    <use xlink:href="#Poppins-Bold-64" transform="translate(265.899948 0)"/>
    <use xlink:href="#Poppins-Bold-6f" transform="translate(333.799942 0)"/>
    <use xlink:href="#Poppins-Bold-20" transform="translate(397.499939 0)"/>
    <use xlink:href="#Poppins-Bold-4d" transform="translate(418.699936 0)"/>
    <use xlink:href="#Poppins-Bold-6f" transform="translate(510.499924 0)"/>
    <use xlink:href="#Poppins-Bold-72" transform="translate(574.199921 0)"/>
    <use xlink:href="#Poppins-Bold-61" transform="translate(616.999908 0)"/>
    <use xlink:href="#Poppins-Bold-6c" transform="translate(684.899902 0)"/>
    <use xlink:href="#Poppins-Bold-65" transform="translate(714.399887 0)"/>
    <use xlink:href="#Poppins-Bold-73" transform="translate(775.999878 0)"/>
   </g>
  </g>
  <g id="text_2">
   <!-- Chief Technology Officer  ·  Principal Systems Architect  ·  Founder -->
   <g style="fill: #00ff66" transform="translate(12.096 117.491) scale(0.155 -0.155)">
    <defs>
     <path id="Poppins-Medium-43" d="M 237 2234 
Q 237 2886 541 3404 
Q 845 3923 1366 4214 
Q 1888 4506 2509 4506 
Q 3219 4506 3772 4157 
Q 4326 3808 4576 3168 
L 3699 3168 
Q 3526 3520 3219 3693 
Q 2912 3866 2509 3866 
Q 2067 3866 1721 3667 
Q 1376 3469 1181 3097 
Q 986 2726 986 2234 
Q 986 1741 1181 1369 
Q 1376 998 1721 796 
Q 2067 595 2509 595 
Q 2912 595 3219 768 
Q 3526 941 3699 1293 
L 4576 1293 
Q 4326 653 3772 307 
Q 3219 -38 2509 -38 
Q 1882 -38 1363 253 
Q 845 544 541 1062 
Q 237 1581 237 2234 
z
" transform="scale(0.015625)"/>
     <path id="Poppins-Medium-68" d="M 2304 3584 
Q 2707 3584 3024 3411 
Q 3341 3238 3523 2899 
Q 3706 2560 3706 2080 
L 3706 0 
L 2982 0 
L 2982 1971 
Q 2982 2445 2745 2697 
Q 2509 2950 2099 2950 
Q 1690 2950 1450 2697 
Q 1210 2445 1210 1971 
L 1210 0 
L 480 0 
L 480 4736 
L 1210 4736 
L 1210 3117 
Q 1395 3341 1680 3462 
Q 1965 3584 2304 3584 
z
" transform="scale(0.015625)"/>
     <path id="Poppins-Medium-69" d="M 851 3994 
Q 653 3994 518 4128 
Q 384 4262 384 4461 
Q 384 4659 518 4793 
Q 653 4928 851 4928 
Q 1043 4928 1177 4793 
Q 1312 4659 1312 4461 
Q 1312 4262 1177 4128 
Q 1043 3994 851 3994 
z
M 1210 3526 
L 1210 0 
L 480 0 
L 480 3526 
L 1210 3526 
z
" transform="scale(0.015625)"/>
     <path id="Poppins-Medium-65" d="M 3712 1850 
Q 3712 1651 3686 1491 
L 992 1491 
Q 1024 1069 1305 813 
Q 1587 557 1997 557 
Q 2586 557 2829 1050 
L 3616 1050 
Q 3456 563 3037 252 
Q 2618 -58 1997 -58 
Q 1491 -58 1091 169 
Q 691 397 464 809 
Q 237 1222 237 1766 
Q 237 2310 457 2723 
Q 678 3136 1078 3360 
Q 1478 3584 1997 3584 
Q 2496 3584 2886 3366 
Q 3277 3149 3494 2755 
Q 3712 2362 3712 1850 
z
M 2950 2080 
Q 2944 2483 2662 2726 
Q 2381 2970 1965 2970 
Q 1587 2970 1318 2730 
Q 1050 2490 998 2080 
L 2950 2080 
z
" transform="scale(0.015625)"/>
     <path id="Poppins-Medium-66" d="M 1958 2931 
L 1306 2931 
L 1306 0 
L 570 0 
L 570 2931 
L 154 2931 
L 154 3526 
L 570 3526 
L 570 3776 
Q 570 4384 893 4662 
Q 1216 4941 1907 4941 
L 1907 4333 
Q 1574 4333 1440 4208 
Q 1306 4083 1306 3776 
L 1306 3526 
L 1958 3526 
L 1958 2931 
z
" transform="scale(0.015625)"/>
     <path id="Poppins-Medium-20" transform="scale(0.015625)"/>
     <path id="Poppins-Medium-54" d="M 3354 4448 
L 3354 3853 
L 2170 3853 
L 2170 0 
L 1440 0 
L 1440 3853 
L 250 3853 
L 250 4448 
L 3354 4448 
z
" transform="scale(0.015625)"/>
     <path id="Poppins-Medium-63" d="M 237 1766 
Q 237 2310 457 2723 
Q 678 3136 1068 3360 
Q 1459 3584 1965 3584 
Q 2605 3584 3024 3280 
Q 3443 2976 3590 2413 
L 2803 2413 
Q 2707 2675 2496 2822 
Q 2285 2970 1965 2970 
Q 1517 2970 1251 2653 
Q 986 2336 986 1766 
Q 986 1197 1251 877 
Q 1517 557 1965 557 
Q 2598 557 2803 1114 
L 3590 1114 
Q 3437 576 3014 259 
Q 2592 -58 1965 -58 
Q 1459 -58 1068 169 
Q 678 397 457 809 
Q 237 1222 237 1766 
z
" transform="scale(0.015625)"/>
     <path id="Poppins-Medium-6e" d="M 2259 3584 
Q 2675 3584 3004 3411 
Q 3334 3238 3520 2899 
Q 3706 2560 3706 2080 
L 3706 0 
L 2982 0 
L 2982 1971 
Q 2982 2445 2745 2697 
Q 2509 2950 2099 2950 
Q 1690 2950 1450 2697 
Q 1210 2445 1210 1971 
L 1210 0 
L 480 0 
L 480 3526 
L 1210 3526 
L 1210 3123 
Q 1389 3341 1667 3462 
Q 1946 3584 2259 3584 
z
" transform="scale(0.015625)"/>
     <path id="Poppins-Medium-6f" d="M 2010 -58 
Q 1510 -58 1107 169 
Q 704 397 473 809 
Q 243 1222 243 1766 
Q 243 2304 480 2720 
Q 717 3136 1126 3360 
Q 1536 3584 2042 3584 
Q 2547 3584 2956 3360 
Q 3366 3136 3603 2720 
Q 3840 2304 3840 1766 
Q 3840 1229 3597 813 
Q 3354 397 2934 169 
Q 2515 -58 2010 -58 
z
M 2010 576 
Q 2291 576 2537 710 
Q 2784 845 2937 1113 
Q 3091 1382 3091 1766 
Q 3091 2150 2944 2416 
Q 2797 2682 2553 2816 
Q 2310 2950 2029 2950 
Q 1747 2950 1507 2816 
Q 1267 2682 1126 2416 
Q 986 2150 986 1766 
Q 986 1197 1277 886 
Q 1568 576 2010 576 
z
" transform="scale(0.015625)"/>
     <path id="Poppins-Medium-6c" d="M 1210 4736 
L 1210 0 
L 480 0 
L 480 4736 
L 1210 4736 
z
" transform="scale(0.015625)"/>
     <path id="Poppins-Medium-67" d="M 1901 3584 
Q 2310 3584 2627 3421 
Q 2944 3258 3123 3014 
L 3123 3526 
L 3859 3526 
L 3859 -58 
Q 3859 -544 3654 -925 
Q 3450 -1306 3062 -1523 
Q 2675 -1741 2138 -1741 
Q 1421 -1741 947 -1405 
Q 474 -1069 410 -493 
L 1133 -493 
Q 1216 -768 1488 -937 
Q 1760 -1107 2138 -1107 
Q 2579 -1107 2851 -838 
Q 3123 -570 3123 -58 
L 3123 531 
Q 2938 282 2621 112 
Q 2304 -58 1901 -58 
Q 1440 -58 1059 176 
Q 678 410 457 829 
Q 237 1248 237 1779 
Q 237 2310 457 2720 
Q 678 3130 1059 3357 
Q 1440 3584 1901 3584 
z
M 3123 1766 
Q 3123 2131 2972 2400 
Q 2822 2669 2579 2809 
Q 2336 2950 2054 2950 
Q 1773 2950 1529 2812 
Q 1286 2675 1136 2409 
Q 986 2144 986 1779 
Q 986 1414 1136 1139 
Q 1286 864 1532 720 
Q 1779 576 2054 576 
Q 2336 576 2579 717 
Q 2822 858 2972 1130 
Q 3123 1402 3123 1766 
z
" transform="scale(0.015625)"/>
     <path id="Poppins-Medium-79" d="M 3654 3526 
L 1491 -1658 
L 736 -1658 
L 1453 58 
L 64 3526 
L 877 3526 
L 1869 838 
L 2899 3526 
L 3654 3526 
z
" transform="scale(0.015625)"/>
     <path id="Poppins-Medium-4f" d="M 2509 -45 
Q 1888 -45 1366 246 
Q 845 538 541 1059 
Q 237 1581 237 2234 
Q 237 2886 541 3404 
Q 845 3923 1366 4214 
Q 1888 4506 2509 4506 
Q 3136 4506 3657 4214 
Q 4179 3923 4480 3404 
Q 4781 2886 4781 2234 
Q 4781 1581 4480 1059 
Q 4179 538 3657 246 
Q 3136 -45 2509 -45 
z
M 2509 589 
Q 2950 589 3296 790 
Q 3642 992 3837 1366 
Q 4032 1741 4032 2234 
Q 4032 2726 3837 3097 
Q 3642 3469 3296 3667 
Q 2950 3866 2509 3866 
Q 2067 3866 1721 3667 
Q 1376 3469 1181 3097 
Q 986 2726 986 2234 
Q 986 1741 1181 1366 
Q 1376 992 1721 790 
Q 2067 589 2509 589 
z
" transform="scale(0.015625)"/>
     <path id="Poppins-Medium-72" d="M 1210 3014 
Q 1370 3283 1635 3433 
Q 1901 3584 2266 3584 
L 2266 2829 
L 2080 2829 
Q 1651 2829 1430 2611 
Q 1210 2394 1210 1856 
L 1210 0 
L 480 0 
L 480 3526 
L 1210 3526 
L 1210 3014 
z
" transform="scale(0.015625)"/>
     <path id="Poppins-Medium-b7" d="M 798 1683 
Q 600 1683 465 1817 
Q 331 1952 331 2150 
Q 331 2349 465 2483 
Q 600 2618 798 2618 
Q 990 2618 1124 2483 
Q 1259 2349 1259 2150 
Q 1259 1952 1124 1817 
Q 990 1683 798 1683 
z
" transform="scale(0.015625)"/>
     <path id="Poppins-Medium-50" d="M 3590 3123 
Q 3590 2784 3430 2483 
Q 3270 2182 2918 1993 
Q 2566 1805 2016 1805 
L 1210 1805 
L 1210 0 
L 480 0 
L 480 4448 
L 2016 4448 
Q 2528 4448 2883 4272 
Q 3238 4096 3414 3795 
Q 3590 3494 3590 3123 
z
M 2016 2400 
Q 2432 2400 2637 2589 
Q 2842 2778 2842 3123 
Q 2842 3853 2016 3853 
L 1210 3853 
L 1210 2400 
L 2016 2400 
z
" transform="scale(0.015625)"/>
     <path id="Poppins-Medium-70" d="M 1210 3008 
Q 1395 3251 1715 3417 
Q 2035 3584 2438 3584 
Q 2899 3584 3280 3357 
Q 3661 3130 3878 2720 
Q 4096 2310 4096 1779 
Q 4096 1248 3878 829 
Q 3661 410 3280 176 
Q 2899 -58 2438 -58 
Q 2035 -58 1721 105 
Q 1408 269 1210 512 
L 1210 -1677 
L 480 -1677 
L 480 3526 
L 1210 3526 
L 1210 3008 
z
M 3354 1779 
Q 3354 2144 3203 2409 
Q 3053 2675 2806 2812 
Q 2560 2950 2278 2950 
Q 2003 2950 1756 2809 
Q 1510 2669 1360 2400 
Q 1210 2131 1210 1766 
Q 1210 1402 1360 1130 
Q 1510 858 1756 717 
Q 2003 576 2278 576 
Q 2560 576 2806 720 
Q 3053 864 3203 1139 
Q 3354 1414 3354 1779 
z
" transform="scale(0.015625)"/>
     <path id="Poppins-Medium-61" d="M 237 1779 
Q 237 2310 457 2720 
Q 678 3130 1059 3357 
Q 1440 3584 1901 3584 
Q 2317 3584 2627 3421 
Q 2938 3258 3123 3014 
L 3123 3526 
L 3859 3526 
L 3859 0 
L 3123 0 
L 3123 525 
Q 2938 275 2618 108 
Q 2298 -58 1888 -58 
Q 1434 -58 1056 176 
Q 678 410 457 829 
Q 237 1248 237 1779 
z
M 3123 1766 
Q 3123 2131 2972 2400 
Q 2822 2669 2579 2809 
Q 2336 2950 2054 2950 
Q 1773 2950 1529 2812 
Q 1286 2675 1136 2409 
Q 986 2144 986 1779 
Q 986 1414 1136 1139 
Q 1286 864 1532 720 
Q 1779 576 2054 576 
Q 2336 576 2579 717 
Q 2822 858 2972 1130 
Q 3123 1402 3123 1766 
z
" transform="scale(0.015625)"/>
     <path id="Poppins-Medium-53" d="M 1946 -45 
Q 1498 -45 1139 112 
Q 781 269 576 557 
Q 371 845 371 1229 
L 1152 1229 
Q 1178 941 1379 755 
Q 1581 570 1946 570 
Q 2323 570 2534 752 
Q 2746 934 2746 1222 
Q 2746 1446 2614 1587 
Q 2483 1728 2288 1805 
Q 2093 1882 1747 1971 
Q 1312 2086 1040 2204 
Q 768 2323 576 2572 
Q 384 2822 384 3238 
Q 384 3622 576 3910 
Q 768 4198 1113 4352 
Q 1459 4506 1914 4506 
Q 2560 4506 2973 4182 
Q 3386 3859 3430 3296 
L 2624 3296 
Q 2605 3539 2393 3712 
Q 2182 3885 1837 3885 
Q 1523 3885 1324 3725 
Q 1126 3565 1126 3264 
Q 1126 3059 1251 2928 
Q 1376 2797 1568 2720 
Q 1760 2643 2093 2554 
Q 2534 2432 2812 2310 
Q 3091 2189 3286 1936 
Q 3482 1683 3482 1261 
Q 3482 922 3299 621 
Q 3117 320 2768 137 
Q 2419 -45 1946 -45 
z
" transform="scale(0.015625)"/>
     <path id="Poppins-Medium-73" d="M 1760 -58 
Q 1344 -58 1014 92 
Q 685 243 493 502 
Q 301 762 288 1082 
L 1043 1082 
Q 1062 858 1257 707 
Q 1453 557 1747 557 
Q 2054 557 2224 675 
Q 2394 794 2394 979 
Q 2394 1178 2205 1274 
Q 2016 1370 1606 1485 
Q 1210 1594 960 1696 
Q 710 1798 528 2009 
Q 346 2221 346 2566 
Q 346 2848 512 3081 
Q 678 3315 988 3449 
Q 1299 3584 1702 3584 
Q 2304 3584 2672 3280 
Q 3040 2976 3066 2451 
L 2336 2451 
Q 2317 2688 2144 2829 
Q 1971 2970 1677 2970 
Q 1389 2970 1235 2861 
Q 1082 2752 1082 2573 
Q 1082 2432 1184 2336 
Q 1286 2240 1433 2185 
Q 1581 2131 1869 2048 
Q 2253 1946 2499 1840 
Q 2746 1734 2925 1529 
Q 3104 1325 3110 986 
Q 3110 685 2944 448 
Q 2778 211 2474 76 
Q 2170 -58 1760 -58 
z
" transform="scale(0.015625)"/>
     <path id="Poppins-Medium-74" d="M 1331 2931 
L 1331 979 
Q 1331 781 1424 694 
Q 1517 608 1741 608 
L 2189 608 
L 2189 0 
L 1613 0 
Q 1120 0 857 230 
Q 595 461 595 979 
L 595 2931 
L 179 2931 
L 179 3526 
L 595 3526 
L 595 4403 
L 1331 4403 
L 1331 3526 
L 2189 3526 
L 2189 2931 
L 1331 2931 
z
" transform="scale(0.015625)"/>
     <path id="Poppins-Medium-6d" d="M 4749 3584 
Q 5165 3584 5494 3411 
Q 5824 3238 6013 2899 
Q 6202 2560 6202 2080 
L 6202 0 
L 5478 0 
L 5478 1971 
Q 5478 2445 5241 2697 
Q 5005 2950 4595 2950 
Q 4186 2950 3946 2697 
Q 3706 2445 3706 1971 
L 3706 0 
L 2982 0 
L 2982 1971 
Q 2982 2445 2745 2697 
Q 2509 2950 2099 2950 
Q 1690 2950 1450 2697 
Q 1210 2445 1210 1971 
L 1210 0 
L 480 0 
L 480 3526 
L 1210 3526 
L 1210 3123 
Q 1389 3341 1664 3462 
Q 1939 3584 2253 3584 
Q 2675 3584 3008 3405 
Q 3341 3226 3520 2886 
Q 3680 3206 4019 3395 
Q 4358 3584 4749 3584 
z
" transform="scale(0.015625)"/>
     <path id="Poppins-Medium-41" d="M 3162 909 
L 1299 909 
L 979 0 
L 218 0 
L 1811 4454 
L 2656 4454 
L 4250 0 
L 3482 0 
L 3162 909 
z
M 2957 1504 
L 2234 3571 
L 1504 1504 
L 2957 1504 
z
" transform="scale(0.015625)"/>
     <path id="Poppins-Medium-46" d="M 3098 4448 
L 3098 3853 
L 1210 3853 
L 1210 2541 
L 2682 2541 
L 2682 1946 
L 1210 1946 
L 1210 0 
L 480 0 
L 480 4448 
L 3098 4448 
z
" transform="scale(0.015625)"/>
     <path id="Poppins-Medium-75" d="M 3674 3526 
L 3674 0 
L 2944 0 
L 2944 416 
Q 2771 198 2492 73 
Q 2214 -51 1901 -51 
Q 1485 -51 1155 121 
Q 826 294 637 633 
Q 448 973 448 1453 
L 448 3526 
L 1171 3526 
L 1171 1562 
Q 1171 1088 1408 835 
Q 1645 582 2054 582 
Q 2464 582 2704 835 
Q 2944 1088 2944 1562 
L 2944 3526 
L 3674 3526 
z
" transform="scale(0.015625)"/>
     <path id="Poppins-Medium-64" d="M 237 1779 
Q 237 2310 457 2720 
Q 678 3130 1059 3357 
Q 1440 3584 1907 3584 
Q 2253 3584 2589 3433 
Q 2925 3283 3123 3034 
L 3123 4736 
L 3859 4736 
L 3859 0 
L 3123 0 
L 3123 531 
Q 2944 275 2627 108 
Q 2310 -58 1901 -58 
Q 1440 -58 1059 176 
Q 678 410 457 829 
Q 237 1248 237 1779 
z
M 3123 1766 
Q 3123 2131 2972 2400 
Q 2822 2669 2579 2809 
Q 2336 2950 2054 2950 
Q 1773 2950 1529 2812 
Q 1286 2675 1136 2409 
Q 986 2144 986 1779 
Q 986 1414 1136 1139 
Q 1286 864 1532 720 
Q 1779 576 2054 576 
Q 2336 576 2579 717 
Q 2822 858 2972 1130 
Q 3123 1402 3123 1766 
z
" transform="scale(0.015625)"/>
    </defs>
    <use xlink:href="#Poppins-Medium-43"/>
    <use xlink:href="#Poppins-Medium-68" transform="translate(77.299988 0)"/>
    <use xlink:href="#Poppins-Medium-69" transform="translate(142.199982 0)"/>
    <use xlink:href="#Poppins-Medium-65" transform="translate(168.599976 0)"/>
    <use xlink:href="#Poppins-Medium-66" transform="translate(230.299973 0)"/>
    <use xlink:href="#Poppins-Medium-20" transform="translate(263.499969 0)"/>
    <use xlink:href="#Poppins-Medium-54" transform="translate(289.499954 0)"/>
    <use xlink:href="#Poppins-Medium-65" transform="translate(345.899948 0)"/>
    <use xlink:href="#Poppins-Medium-63" transform="translate(407.599945 0)"/>
    <use xlink:href="#Poppins-Medium-68" transform="translate(467.59993 0)"/>
    <use xlink:href="#Poppins-Medium-6e" transform="translate(532.499924 0)"/>
    <use xlink:href="#Poppins-Medium-6f" transform="translate(597.399918 0)"/>
    <use xlink:href="#Poppins-Medium-6c" transform="translate(661.199905 0)"/>
    <use xlink:href="#Poppins-Medium-6f" transform="translate(687.599899 0)"/>
    <use xlink:href="#Poppins-Medium-67" transform="translate(751.399887 0)"/>
    <use xlink:href="#Poppins-Medium-79" transform="translate(819.199875 0)"/>
    <use xlink:href="#Poppins-Medium-20" transform="translate(877.399872 0)"/>
    <use xlink:href="#Poppins-Medium-4f" transform="translate(903.399857 0)"/>
    <use xlink:href="#Poppins-Medium-66" transform="translate(981.79985 0)"/>
    <use xlink:href="#Poppins-Medium-66" transform="translate(1014.999847 0)"/>
    <use xlink:href="#Poppins-Medium-69" transform="translate(1048.199844 0)"/>
    <use xlink:href="#Poppins-Medium-63" transform="translate(1074.599838 0)"/>
    <use xlink:href="#Poppins-Medium-65" transform="translate(1134.599823 0)"/>
    <use xlink:href="#Poppins-Medium-72" transform="translate(1196.29982 0)"/>
    <use xlink:href="#Poppins-Medium-20" transform="translate(1234.699814 0)"/>
    <use xlink:href="#Poppins-Medium-20" transform="translate(1260.699799 0)"/>
    <use xlink:href="#Poppins-Medium-b7" transform="translate(1286.699783 0)"/>
    <use xlink:href="#Poppins-Medium-20" transform="translate(1311.099777 0)"/>
    <use xlink:href="#Poppins-Medium-20" transform="translate(1337.099762 0)"/>
    <use xlink:href="#Poppins-Medium-50" transform="translate(1363.099747 0)"/>
    <use xlink:href="#Poppins-Medium-72" transform="translate(1422.599731 0)"/>
    <use xlink:href="#Poppins-Medium-69" transform="translate(1460.999725 0)"/>
    <use xlink:href="#Poppins-Medium-6e" transform="translate(1487.399719 0)"/>
    <use xlink:href="#Poppins-Medium-63" transform="translate(1552.299713 0)"/>
    <use xlink:href="#Poppins-Medium-69" transform="translate(1612.299698 0)"/>
    <use xlink:href="#Poppins-Medium-70" transform="translate(1638.699692 0)"/>
    <use xlink:href="#Poppins-Medium-61" transform="translate(1706.49968 0)"/>
    <use xlink:href="#Poppins-Medium-6c" transform="translate(1774.299667 0)"/>
    <use xlink:href="#Poppins-Medium-20" transform="translate(1800.699661 0)"/>
    <use xlink:href="#Poppins-Medium-53" transform="translate(1826.699646 0)"/>
    <use xlink:href="#Poppins-Medium-79" transform="translate(1887.09964 0)"/>
    <use xlink:href="#Poppins-Medium-73" transform="translate(1945.299637 0)"/>
    <use xlink:href="#Poppins-Medium-74" transform="translate(1998.699631 0)"/>
    <use xlink:href="#Poppins-Medium-65" transform="translate(2035.899628 0)"/>
    <use xlink:href="#Poppins-Medium-6d" transform="translate(2097.599625 0)"/>
    <use xlink:href="#Poppins-Medium-73" transform="translate(2201.499619 0)"/>
    <use xlink:href="#Poppins-Medium-20" transform="translate(2254.899612 0)"/>
    <use xlink:href="#Poppins-Medium-41" transform="translate(2280.899597 0)"/>
    <use xlink:href="#Poppins-Medium-72" transform="translate(2350.599579 0)"/>
    <use xlink:href="#Poppins-Medium-63" transform="translate(2388.999573 0)"/>
    <use xlink:href="#Poppins-Medium-68" transform="translate(2448.999557 0)"/>
    <use xlink:href="#Poppins-Medium-69" transform="translate(2513.899551 0)"/>
    <use xlink:href="#Poppins-Medium-74" transform="translate(2540.299545 0)"/>
    <use xlink:href="#Poppins-Medium-65" transform="translate(2577.499542 0)"/>
    <use xlink:href="#Poppins-Medium-63" transform="translate(2639.199539 0)"/>
    <use xlink:href="#Poppins-Medium-74" transform="translate(2699.199524 0)"/>
    <use xlink:href="#Poppins-Medium-20" transform="translate(2736.399521 0)"/>
    <use xlink:href="#Poppins-Medium-20" transform="translate(2762.399506 0)"/>
    <use xlink:href="#Poppins-Medium-b7" transform="translate(2788.39949 0)"/>
    <use xlink:href="#Poppins-Medium-20" transform="translate(2812.799484 0)"/>
    <use xlink:href="#Poppins-Medium-20" transform="translate(2838.799469 0)"/>
    <use xlink:href="#Poppins-Medium-46" transform="translate(2864.799454 0)"/>
    <use xlink:href="#Poppins-Medium-6f" transform="translate(2916.299438 0)"/>
    <use xlink:href="#Poppins-Medium-75" transform="translate(2980.099426 0)"/>
    <use xlink:href="#Poppins-Medium-6e" transform="translate(3044.99942 0)"/>
    <use xlink:href="#Poppins-Medium-64" transform="translate(3109.899414 0)"/>
    <use xlink:href="#Poppins-Medium-65" transform="translate(3177.699402 0)"/>
    <use xlink:href="#Poppins-Medium-72" transform="translate(3239.399399 0)"/>
   </g>
  </g>
 </g>
</svg>
